<mxfile host="app.diagrams.net" modified="2023-02-21T01:40:28.292Z" agent="5.0 (Windows NT 10.0; Win64; x64) AppleWebKit/537.36 (KHTML, like Gecko) Chrome/110.0.0.0 Safari/537.36 Edg/110.0.1587.50" etag="9_nDMX13B3covZtmvdhX" version="20.8.20" type="github">
  <diagram id="prtHgNgQTEPvFCAcTncT" name="Page-1">
    <mxGraphModel dx="3857" dy="2273" grid="0" gridSize="10" guides="1" tooltips="1" connect="1" arrows="1" fold="1" page="0" pageScale="1" pageWidth="827" pageHeight="1169" math="0" shadow="0">
      <root>
        <mxCell id="0" />
        <mxCell id="1" parent="0" />
        <mxCell id="0PdoECW7N2lAlVNQ1Ze_-1" value="customer tag in" style="swimlane;html=1;childLayout=stackLayout;resizeParent=1;resizeParentMax=0;startSize=20;whiteSpace=wrap;" parent="1" vertex="1">
          <mxGeometry x="185" y="-56" width="434" height="430" as="geometry" />
        </mxCell>
        <mxCell id="0PdoECW7N2lAlVNQ1Ze_-2" value="customer" style="swimlane;html=1;startSize=20;" parent="0PdoECW7N2lAlVNQ1Ze_-1" vertex="1">
          <mxGeometry y="20" width="120" height="410" as="geometry" />
        </mxCell>
        <mxCell id="0PdoECW7N2lAlVNQ1Ze_-27" value="tag in" style="ellipse;whiteSpace=wrap;html=1;" parent="0PdoECW7N2lAlVNQ1Ze_-2" vertex="1">
          <mxGeometry x="40" y="37" width="40" height="40" as="geometry" />
        </mxCell>
        <mxCell id="0PdoECW7N2lAlVNQ1Ze_-53" value="enter store" style="ellipse;whiteSpace=wrap;html=1;" parent="0PdoECW7N2lAlVNQ1Ze_-2" vertex="1">
          <mxGeometry x="40" y="273" width="40" height="40" as="geometry" />
        </mxCell>
        <mxCell id="0PdoECW7N2lAlVNQ1Ze_-78" value="press bell" style="ellipse;whiteSpace=wrap;html=1;" parent="0PdoECW7N2lAlVNQ1Ze_-2" vertex="1">
          <mxGeometry x="40" y="348" width="40" height="40" as="geometry" />
        </mxCell>
        <mxCell id="0PdoECW7N2lAlVNQ1Ze_-3" value="controller" style="swimlane;html=1;startSize=20;" parent="0PdoECW7N2lAlVNQ1Ze_-1" vertex="1">
          <mxGeometry x="120" y="20" width="194" height="410" as="geometry" />
        </mxCell>
        <mxCell id="0PdoECW7N2lAlVNQ1Ze_-46" style="edgeStyle=orthogonalEdgeStyle;rounded=0;orthogonalLoop=1;jettySize=auto;html=1;entryX=0.5;entryY=0;entryDx=0;entryDy=0;" parent="0PdoECW7N2lAlVNQ1Ze_-3" source="0PdoECW7N2lAlVNQ1Ze_-31" target="0PdoECW7N2lAlVNQ1Ze_-41" edge="1">
          <mxGeometry relative="1" as="geometry" />
        </mxCell>
        <mxCell id="0PdoECW7N2lAlVNQ1Ze_-31" value="process data" style="rounded=0;whiteSpace=wrap;html=1;fontFamily=Helvetica;fontSize=12;fontColor=#000000;align=center;" parent="0PdoECW7N2lAlVNQ1Ze_-3" vertex="1">
          <mxGeometry x="57" y="82" width="80" height="60" as="geometry" />
        </mxCell>
        <mxCell id="0PdoECW7N2lAlVNQ1Ze_-50" style="edgeStyle=orthogonalEdgeStyle;rounded=0;orthogonalLoop=1;jettySize=auto;html=1;entryX=0.5;entryY=0;entryDx=0;entryDy=0;" parent="0PdoECW7N2lAlVNQ1Ze_-3" source="0PdoECW7N2lAlVNQ1Ze_-41" target="0PdoECW7N2lAlVNQ1Ze_-47" edge="1">
          <mxGeometry relative="1" as="geometry" />
        </mxCell>
        <mxCell id="0PdoECW7N2lAlVNQ1Ze_-51" value="yes" style="edgeLabel;html=1;align=center;verticalAlign=middle;resizable=0;points=[];" parent="0PdoECW7N2lAlVNQ1Ze_-50" vertex="1" connectable="0">
          <mxGeometry x="-0.2404" y="-1" relative="1" as="geometry">
            <mxPoint as="offset" />
          </mxGeometry>
        </mxCell>
        <mxCell id="0PdoECW7N2lAlVNQ1Ze_-41" value="" style="rhombus;whiteSpace=wrap;html=1;fontFamily=Helvetica;fontSize=12;fontColor=#000000;align=center;" parent="0PdoECW7N2lAlVNQ1Ze_-3" vertex="1">
          <mxGeometry x="77" y="181" width="40" height="40" as="geometry" />
        </mxCell>
        <mxCell id="0PdoECW7N2lAlVNQ1Ze_-42" value="tag &lt;br&gt;authorized?" style="text;html=1;align=center;verticalAlign=middle;resizable=0;points=[];autosize=1;strokeColor=none;fillColor=none;" parent="0PdoECW7N2lAlVNQ1Ze_-3" vertex="1">
          <mxGeometry x="7" y="180.5" width="81" height="41" as="geometry" />
        </mxCell>
        <mxCell id="0PdoECW7N2lAlVNQ1Ze_-47" value="grant access" style="rounded=0;whiteSpace=wrap;html=1;fontFamily=Helvetica;fontSize=12;fontColor=#000000;align=center;" parent="0PdoECW7N2lAlVNQ1Ze_-3" vertex="1">
          <mxGeometry x="57" y="263" width="80" height="60" as="geometry" />
        </mxCell>
        <mxCell id="0PdoECW7N2lAlVNQ1Ze_-4" value="reader" style="swimlane;html=1;startSize=20;" parent="0PdoECW7N2lAlVNQ1Ze_-1" vertex="1">
          <mxGeometry x="314" y="20" width="120" height="410" as="geometry" />
        </mxCell>
        <mxCell id="0PdoECW7N2lAlVNQ1Ze_-32" value="read signal" style="rounded=0;whiteSpace=wrap;html=1;fontFamily=Helvetica;fontSize=12;fontColor=#000000;align=center;" parent="0PdoECW7N2lAlVNQ1Ze_-4" vertex="1">
          <mxGeometry x="20" y="27" width="80" height="60" as="geometry" />
        </mxCell>
        <mxCell id="0PdoECW7N2lAlVNQ1Ze_-43" value="buzz" style="rounded=0;whiteSpace=wrap;html=1;fontFamily=Helvetica;fontSize=12;fontColor=#000000;align=center;" parent="0PdoECW7N2lAlVNQ1Ze_-4" vertex="1">
          <mxGeometry x="20" y="171" width="80" height="60" as="geometry" />
        </mxCell>
        <mxCell id="0PdoECW7N2lAlVNQ1Ze_-33" style="edgeStyle=orthogonalEdgeStyle;rounded=0;orthogonalLoop=1;jettySize=auto;html=1;" parent="0PdoECW7N2lAlVNQ1Ze_-1" source="0PdoECW7N2lAlVNQ1Ze_-27" target="0PdoECW7N2lAlVNQ1Ze_-32" edge="1">
          <mxGeometry relative="1" as="geometry" />
        </mxCell>
        <mxCell id="0PdoECW7N2lAlVNQ1Ze_-44" style="edgeStyle=orthogonalEdgeStyle;rounded=0;orthogonalLoop=1;jettySize=auto;html=1;" parent="0PdoECW7N2lAlVNQ1Ze_-1" source="0PdoECW7N2lAlVNQ1Ze_-41" target="0PdoECW7N2lAlVNQ1Ze_-43" edge="1">
          <mxGeometry relative="1" as="geometry" />
        </mxCell>
        <mxCell id="0PdoECW7N2lAlVNQ1Ze_-45" value="no" style="edgeLabel;html=1;align=center;verticalAlign=middle;resizable=0;points=[];" parent="0PdoECW7N2lAlVNQ1Ze_-44" vertex="1" connectable="0">
          <mxGeometry x="-0.244" relative="1" as="geometry">
            <mxPoint as="offset" />
          </mxGeometry>
        </mxCell>
        <mxCell id="0PdoECW7N2lAlVNQ1Ze_-54" style="edgeStyle=orthogonalEdgeStyle;rounded=0;orthogonalLoop=1;jettySize=auto;html=1;entryX=1;entryY=0.5;entryDx=0;entryDy=0;" parent="0PdoECW7N2lAlVNQ1Ze_-1" source="0PdoECW7N2lAlVNQ1Ze_-47" target="0PdoECW7N2lAlVNQ1Ze_-53" edge="1">
          <mxGeometry relative="1" as="geometry" />
        </mxCell>
        <mxCell id="0PdoECW7N2lAlVNQ1Ze_-79" style="edgeStyle=orthogonalEdgeStyle;rounded=0;orthogonalLoop=1;jettySize=auto;html=1;entryX=1;entryY=0.5;entryDx=0;entryDy=0;" parent="0PdoECW7N2lAlVNQ1Ze_-1" source="0PdoECW7N2lAlVNQ1Ze_-43" target="0PdoECW7N2lAlVNQ1Ze_-78" edge="1">
          <mxGeometry relative="1" as="geometry">
            <Array as="points">
              <mxPoint x="374" y="388" />
            </Array>
          </mxGeometry>
        </mxCell>
        <mxCell id="0PdoECW7N2lAlVNQ1Ze_-81" style="edgeStyle=orthogonalEdgeStyle;rounded=0;orthogonalLoop=1;jettySize=auto;html=1;" parent="0PdoECW7N2lAlVNQ1Ze_-1" source="0PdoECW7N2lAlVNQ1Ze_-32" target="0PdoECW7N2lAlVNQ1Ze_-31" edge="1">
          <mxGeometry relative="1" as="geometry">
            <Array as="points">
              <mxPoint x="374" y="132" />
            </Array>
          </mxGeometry>
        </mxCell>
        <mxCell id="0PdoECW7N2lAlVNQ1Ze_-5" value="" style="swimlane;html=1;childLayout=stackLayout;resizeParent=1;resizeParentMax=0;horizontal=0;startSize=20;horizontalStack=0;" parent="1" vertex="1">
          <mxGeometry x="-303" y="-40" width="450" height="360" as="geometry" />
        </mxCell>
        <mxCell id="0PdoECW7N2lAlVNQ1Ze_-6" value="" style="edgeStyle=orthogonalEdgeStyle;rounded=0;orthogonalLoop=1;jettySize=auto;html=1;dashed=1;endArrow=none;endFill=0;" parent="0PdoECW7N2lAlVNQ1Ze_-5" source="0PdoECW7N2lAlVNQ1Ze_-13" target="0PdoECW7N2lAlVNQ1Ze_-19" edge="1">
          <mxGeometry relative="1" as="geometry" />
        </mxCell>
        <mxCell id="0PdoECW7N2lAlVNQ1Ze_-7" style="edgeStyle=orthogonalEdgeStyle;rounded=0;orthogonalLoop=1;jettySize=auto;html=1;endArrow=classic;endFill=1;" parent="0PdoECW7N2lAlVNQ1Ze_-5" source="0PdoECW7N2lAlVNQ1Ze_-20" target="0PdoECW7N2lAlVNQ1Ze_-15" edge="1">
          <mxGeometry relative="1" as="geometry" />
        </mxCell>
        <mxCell id="0PdoECW7N2lAlVNQ1Ze_-8" style="edgeStyle=orthogonalEdgeStyle;rounded=0;orthogonalLoop=1;jettySize=auto;html=1;endArrow=classic;endFill=1;" parent="0PdoECW7N2lAlVNQ1Ze_-5" source="0PdoECW7N2lAlVNQ1Ze_-20" target="0PdoECW7N2lAlVNQ1Ze_-23" edge="1">
          <mxGeometry relative="1" as="geometry" />
        </mxCell>
        <mxCell id="0PdoECW7N2lAlVNQ1Ze_-9" style="edgeStyle=orthogonalEdgeStyle;rounded=0;orthogonalLoop=1;jettySize=auto;html=1;endArrow=classic;endFill=1;" parent="0PdoECW7N2lAlVNQ1Ze_-5" source="0PdoECW7N2lAlVNQ1Ze_-19" target="0PdoECW7N2lAlVNQ1Ze_-24" edge="1">
          <mxGeometry relative="1" as="geometry">
            <Array as="points">
              <mxPoint x="180" y="340" />
              <mxPoint x="400" y="340" />
            </Array>
          </mxGeometry>
        </mxCell>
        <mxCell id="0PdoECW7N2lAlVNQ1Ze_-10" value="Lane 1" style="swimlane;html=1;startSize=20;horizontal=0;" parent="0PdoECW7N2lAlVNQ1Ze_-5" vertex="1">
          <mxGeometry x="20" width="430" height="120" as="geometry" />
        </mxCell>
        <mxCell id="0PdoECW7N2lAlVNQ1Ze_-11" value="" style="edgeStyle=orthogonalEdgeStyle;rounded=0;orthogonalLoop=1;jettySize=auto;html=1;" parent="0PdoECW7N2lAlVNQ1Ze_-10" source="0PdoECW7N2lAlVNQ1Ze_-12" target="0PdoECW7N2lAlVNQ1Ze_-13" edge="1">
          <mxGeometry relative="1" as="geometry" />
        </mxCell>
        <mxCell id="0PdoECW7N2lAlVNQ1Ze_-12" value="" style="ellipse;whiteSpace=wrap;html=1;" parent="0PdoECW7N2lAlVNQ1Ze_-10" vertex="1">
          <mxGeometry x="40" y="40" width="40" height="40" as="geometry" />
        </mxCell>
        <mxCell id="0PdoECW7N2lAlVNQ1Ze_-13" value="" style="rounded=0;whiteSpace=wrap;html=1;fontFamily=Helvetica;fontSize=12;fontColor=#000000;align=center;" parent="0PdoECW7N2lAlVNQ1Ze_-10" vertex="1">
          <mxGeometry x="120" y="30" width="80" height="60" as="geometry" />
        </mxCell>
        <mxCell id="0PdoECW7N2lAlVNQ1Ze_-14" value="" style="edgeStyle=orthogonalEdgeStyle;rounded=0;orthogonalLoop=1;jettySize=auto;html=1;endArrow=classic;endFill=1;" parent="0PdoECW7N2lAlVNQ1Ze_-10" source="0PdoECW7N2lAlVNQ1Ze_-15" target="0PdoECW7N2lAlVNQ1Ze_-16" edge="1">
          <mxGeometry relative="1" as="geometry" />
        </mxCell>
        <mxCell id="0PdoECW7N2lAlVNQ1Ze_-15" value="" style="rounded=0;whiteSpace=wrap;html=1;fontFamily=Helvetica;fontSize=12;fontColor=#000000;align=center;" parent="0PdoECW7N2lAlVNQ1Ze_-10" vertex="1">
          <mxGeometry x="240" y="30" width="80" height="60" as="geometry" />
        </mxCell>
        <mxCell id="0PdoECW7N2lAlVNQ1Ze_-16" value="" style="ellipse;whiteSpace=wrap;html=1;" parent="0PdoECW7N2lAlVNQ1Ze_-10" vertex="1">
          <mxGeometry x="360" y="40" width="40" height="40" as="geometry" />
        </mxCell>
        <mxCell id="0PdoECW7N2lAlVNQ1Ze_-17" value="Lane 2" style="swimlane;html=1;startSize=20;horizontal=0;" parent="0PdoECW7N2lAlVNQ1Ze_-5" vertex="1">
          <mxGeometry x="20" y="120" width="430" height="120" as="geometry" />
        </mxCell>
        <mxCell id="0PdoECW7N2lAlVNQ1Ze_-18" value="" style="edgeStyle=orthogonalEdgeStyle;rounded=0;orthogonalLoop=1;jettySize=auto;html=1;endArrow=classic;endFill=1;" parent="0PdoECW7N2lAlVNQ1Ze_-17" source="0PdoECW7N2lAlVNQ1Ze_-19" target="0PdoECW7N2lAlVNQ1Ze_-20" edge="1">
          <mxGeometry relative="1" as="geometry" />
        </mxCell>
        <mxCell id="0PdoECW7N2lAlVNQ1Ze_-19" value="" style="rounded=0;whiteSpace=wrap;html=1;fontFamily=Helvetica;fontSize=12;fontColor=#000000;align=center;" parent="0PdoECW7N2lAlVNQ1Ze_-17" vertex="1">
          <mxGeometry x="120" y="30" width="80" height="60" as="geometry" />
        </mxCell>
        <mxCell id="0PdoECW7N2lAlVNQ1Ze_-20" value="" style="rhombus;whiteSpace=wrap;html=1;fontFamily=Helvetica;fontSize=12;fontColor=#000000;align=center;" parent="0PdoECW7N2lAlVNQ1Ze_-17" vertex="1">
          <mxGeometry x="260" y="40" width="40" height="40" as="geometry" />
        </mxCell>
        <mxCell id="0PdoECW7N2lAlVNQ1Ze_-21" value="Lane 3" style="swimlane;html=1;startSize=20;horizontal=0;" parent="0PdoECW7N2lAlVNQ1Ze_-5" vertex="1">
          <mxGeometry x="20" y="240" width="430" height="120" as="geometry" />
        </mxCell>
        <mxCell id="0PdoECW7N2lAlVNQ1Ze_-22" value="" style="edgeStyle=orthogonalEdgeStyle;rounded=0;orthogonalLoop=1;jettySize=auto;html=1;endArrow=classic;endFill=1;" parent="0PdoECW7N2lAlVNQ1Ze_-21" source="0PdoECW7N2lAlVNQ1Ze_-23" target="0PdoECW7N2lAlVNQ1Ze_-24" edge="1">
          <mxGeometry relative="1" as="geometry" />
        </mxCell>
        <mxCell id="0PdoECW7N2lAlVNQ1Ze_-23" value="" style="rounded=0;whiteSpace=wrap;html=1;fontFamily=Helvetica;fontSize=12;fontColor=#000000;align=center;" parent="0PdoECW7N2lAlVNQ1Ze_-21" vertex="1">
          <mxGeometry x="240" y="20" width="80" height="60" as="geometry" />
        </mxCell>
        <mxCell id="0PdoECW7N2lAlVNQ1Ze_-24" value="" style="rhombus;whiteSpace=wrap;html=1;fontFamily=Helvetica;fontSize=12;fontColor=#000000;align=center;" parent="0PdoECW7N2lAlVNQ1Ze_-21" vertex="1">
          <mxGeometry x="360" y="30" width="40" height="40" as="geometry" />
        </mxCell>
        <mxCell id="0PdoECW7N2lAlVNQ1Ze_-82" value="assign tag to customer" style="swimlane;html=1;childLayout=stackLayout;resizeParent=1;resizeParentMax=0;startSize=20;whiteSpace=wrap;movable=1;resizable=1;rotatable=1;deletable=1;editable=1;locked=0;connectable=1;" parent="1" vertex="1">
          <mxGeometry x="673" y="-70" width="595" height="449" as="geometry" />
        </mxCell>
        <mxCell id="0PdoECW7N2lAlVNQ1Ze_-83" value="customer" style="swimlane;html=1;startSize=20;" parent="0PdoECW7N2lAlVNQ1Ze_-82" vertex="1">
          <mxGeometry y="20" width="120" height="429" as="geometry" />
        </mxCell>
        <mxCell id="0PdoECW7N2lAlVNQ1Ze_-84" value="enter store" style="ellipse;whiteSpace=wrap;html=1;" parent="0PdoECW7N2lAlVNQ1Ze_-83" vertex="1">
          <mxGeometry x="40" y="37" width="40" height="40" as="geometry" />
        </mxCell>
        <mxCell id="0PdoECW7N2lAlVNQ1Ze_-86" value="receive tag" style="ellipse;whiteSpace=wrap;html=1;" parent="0PdoECW7N2lAlVNQ1Ze_-83" vertex="1">
          <mxGeometry x="40" y="371" width="40" height="40" as="geometry" />
        </mxCell>
        <mxCell id="0PdoECW7N2lAlVNQ1Ze_-87" value="staff" style="swimlane;html=1;startSize=20;" parent="0PdoECW7N2lAlVNQ1Ze_-82" vertex="1">
          <mxGeometry x="120" y="20" width="345" height="429" as="geometry" />
        </mxCell>
        <mxCell id="0PdoECW7N2lAlVNQ1Ze_-107" style="edgeStyle=orthogonalEdgeStyle;rounded=0;orthogonalLoop=1;jettySize=auto;html=1;entryX=0.5;entryY=0;entryDx=0;entryDy=0;" parent="0PdoECW7N2lAlVNQ1Ze_-87" source="0PdoECW7N2lAlVNQ1Ze_-89" target="0PdoECW7N2lAlVNQ1Ze_-92" edge="1">
          <mxGeometry relative="1" as="geometry" />
        </mxCell>
        <mxCell id="0PdoECW7N2lAlVNQ1Ze_-89" value="gather information" style="rounded=0;whiteSpace=wrap;html=1;fontFamily=Helvetica;fontSize=12;fontColor=#000000;align=center;" parent="0PdoECW7N2lAlVNQ1Ze_-87" vertex="1">
          <mxGeometry x="57" y="27" width="80" height="60" as="geometry" />
        </mxCell>
        <mxCell id="0PdoECW7N2lAlVNQ1Ze_-111" style="edgeStyle=orthogonalEdgeStyle;rounded=0;orthogonalLoop=1;jettySize=auto;html=1;" parent="0PdoECW7N2lAlVNQ1Ze_-87" source="0PdoECW7N2lAlVNQ1Ze_-92" target="0PdoECW7N2lAlVNQ1Ze_-96" edge="1">
          <mxGeometry relative="1" as="geometry" />
        </mxCell>
        <mxCell id="0PdoECW7N2lAlVNQ1Ze_-113" value="no" style="edgeLabel;html=1;align=center;verticalAlign=middle;resizable=0;points=[];" parent="0PdoECW7N2lAlVNQ1Ze_-111" vertex="1" connectable="0">
          <mxGeometry x="0.3015" y="1" relative="1" as="geometry">
            <mxPoint x="-9" as="offset" />
          </mxGeometry>
        </mxCell>
        <mxCell id="0PdoECW7N2lAlVNQ1Ze_-112" style="edgeStyle=orthogonalEdgeStyle;rounded=0;orthogonalLoop=1;jettySize=auto;html=1;" parent="0PdoECW7N2lAlVNQ1Ze_-87" source="0PdoECW7N2lAlVNQ1Ze_-92" target="0PdoECW7N2lAlVNQ1Ze_-97" edge="1">
          <mxGeometry relative="1" as="geometry" />
        </mxCell>
        <mxCell id="0PdoECW7N2lAlVNQ1Ze_-114" value="yes" style="edgeLabel;html=1;align=center;verticalAlign=middle;resizable=0;points=[];" parent="0PdoECW7N2lAlVNQ1Ze_-112" vertex="1" connectable="0">
          <mxGeometry x="-0.7478" relative="1" as="geometry">
            <mxPoint y="3" as="offset" />
          </mxGeometry>
        </mxCell>
        <mxCell id="0PdoECW7N2lAlVNQ1Ze_-92" value="" style="rhombus;whiteSpace=wrap;html=1;fontFamily=Helvetica;fontSize=12;fontColor=#000000;align=center;" parent="0PdoECW7N2lAlVNQ1Ze_-87" vertex="1">
          <mxGeometry x="77" y="125" width="40" height="40" as="geometry" />
        </mxCell>
        <mxCell id="0PdoECW7N2lAlVNQ1Ze_-106" value="existing &lt;br&gt;customer?" style="text;html=1;align=center;verticalAlign=middle;resizable=0;points=[];autosize=1;strokeColor=none;fillColor=none;" parent="0PdoECW7N2lAlVNQ1Ze_-87" vertex="1">
          <mxGeometry x="12" y="125" width="74" height="41" as="geometry" />
        </mxCell>
        <mxCell id="0PdoECW7N2lAlVNQ1Ze_-96" value="create customer" style="rounded=0;whiteSpace=wrap;html=1;fontFamily=Helvetica;fontSize=12;fontColor=#000000;align=center;" parent="0PdoECW7N2lAlVNQ1Ze_-87" vertex="1">
          <mxGeometry x="169" y="115" width="80" height="60" as="geometry" />
        </mxCell>
        <mxCell id="0PdoECW7N2lAlVNQ1Ze_-123" style="edgeStyle=orthogonalEdgeStyle;rounded=0;orthogonalLoop=1;jettySize=auto;html=1;" parent="0PdoECW7N2lAlVNQ1Ze_-87" source="0PdoECW7N2lAlVNQ1Ze_-94" target="0PdoECW7N2lAlVNQ1Ze_-119" edge="1">
          <mxGeometry relative="1" as="geometry" />
        </mxCell>
        <mxCell id="0PdoECW7N2lAlVNQ1Ze_-94" value="find customer" style="rounded=0;whiteSpace=wrap;html=1;fontFamily=Helvetica;fontSize=12;fontColor=#000000;align=center;" parent="0PdoECW7N2lAlVNQ1Ze_-87" vertex="1">
          <mxGeometry x="57" y="286" width="80" height="60" as="geometry" />
        </mxCell>
        <mxCell id="0PdoECW7N2lAlVNQ1Ze_-117" style="edgeStyle=orthogonalEdgeStyle;rounded=0;orthogonalLoop=1;jettySize=auto;html=1;" parent="0PdoECW7N2lAlVNQ1Ze_-87" source="0PdoECW7N2lAlVNQ1Ze_-97" target="0PdoECW7N2lAlVNQ1Ze_-94" edge="1">
          <mxGeometry relative="1" as="geometry" />
        </mxCell>
        <mxCell id="0PdoECW7N2lAlVNQ1Ze_-97" value="open access control interface" style="rounded=0;whiteSpace=wrap;html=1;fontFamily=Helvetica;fontSize=12;fontColor=#000000;align=center;" parent="0PdoECW7N2lAlVNQ1Ze_-87" vertex="1">
          <mxGeometry x="57" y="201" width="80" height="60" as="geometry" />
        </mxCell>
        <mxCell id="0PdoECW7N2lAlVNQ1Ze_-119" value="assign tag" style="rounded=0;whiteSpace=wrap;html=1;fontFamily=Helvetica;fontSize=12;fontColor=#000000;align=center;" parent="0PdoECW7N2lAlVNQ1Ze_-87" vertex="1">
          <mxGeometry x="169" y="286" width="80" height="60" as="geometry" />
        </mxCell>
        <mxCell id="0PdoECW7N2lAlVNQ1Ze_-105" style="edgeStyle=orthogonalEdgeStyle;rounded=0;orthogonalLoop=1;jettySize=auto;html=1;" parent="0PdoECW7N2lAlVNQ1Ze_-82" source="0PdoECW7N2lAlVNQ1Ze_-84" target="0PdoECW7N2lAlVNQ1Ze_-89" edge="1">
          <mxGeometry relative="1" as="geometry" />
        </mxCell>
        <mxCell id="0PdoECW7N2lAlVNQ1Ze_-95" value="synchronizer" style="swimlane;html=1;startSize=20;" parent="0PdoECW7N2lAlVNQ1Ze_-82" vertex="1">
          <mxGeometry x="465" y="20" width="130" height="429" as="geometry" />
        </mxCell>
        <mxCell id="0PdoECW7N2lAlVNQ1Ze_-120" value="upate access control database" style="rounded=0;whiteSpace=wrap;html=1;fontFamily=Helvetica;fontSize=12;fontColor=#000000;align=center;" parent="0PdoECW7N2lAlVNQ1Ze_-95" vertex="1">
          <mxGeometry x="25" y="115" width="80" height="60" as="geometry" />
        </mxCell>
        <mxCell id="0PdoECW7N2lAlVNQ1Ze_-121" style="edgeStyle=orthogonalEdgeStyle;rounded=0;orthogonalLoop=1;jettySize=auto;html=1;" parent="0PdoECW7N2lAlVNQ1Ze_-82" source="0PdoECW7N2lAlVNQ1Ze_-96" target="0PdoECW7N2lAlVNQ1Ze_-120" edge="1">
          <mxGeometry relative="1" as="geometry" />
        </mxCell>
        <mxCell id="0PdoECW7N2lAlVNQ1Ze_-122" style="edgeStyle=orthogonalEdgeStyle;rounded=0;orthogonalLoop=1;jettySize=auto;html=1;" parent="0PdoECW7N2lAlVNQ1Ze_-82" source="0PdoECW7N2lAlVNQ1Ze_-120" target="0PdoECW7N2lAlVNQ1Ze_-97" edge="1">
          <mxGeometry relative="1" as="geometry">
            <Array as="points">
              <mxPoint x="530" y="251" />
            </Array>
          </mxGeometry>
        </mxCell>
        <mxCell id="0PdoECW7N2lAlVNQ1Ze_-124" style="edgeStyle=orthogonalEdgeStyle;rounded=0;orthogonalLoop=1;jettySize=auto;html=1;" parent="0PdoECW7N2lAlVNQ1Ze_-82" source="0PdoECW7N2lAlVNQ1Ze_-119" target="0PdoECW7N2lAlVNQ1Ze_-86" edge="1">
          <mxGeometry relative="1" as="geometry">
            <Array as="points">
              <mxPoint x="329" y="411" />
            </Array>
          </mxGeometry>
        </mxCell>
        <mxCell id="0PdoECW7N2lAlVNQ1Ze_-152" value="assign tag to customer associate" style="swimlane;childLayout=stackLayout;resizeParent=1;resizeParentMax=0;startSize=20;html=1;" parent="1" vertex="1">
          <mxGeometry x="1379.0000000000005" y="-70" width="515" height="480" as="geometry" />
        </mxCell>
        <mxCell id="0PdoECW7N2lAlVNQ1Ze_-153" value="customer" style="swimlane;startSize=20;html=1;" parent="0PdoECW7N2lAlVNQ1Ze_-152" vertex="1">
          <mxGeometry y="20" width="120" height="460" as="geometry" />
        </mxCell>
        <mxCell id="UER0VNb6wHA6vJHIC-ZS-4" value="confirm association" style="rounded=0;whiteSpace=wrap;html=1;fontFamily=Helvetica;fontSize=12;fontColor=#000000;align=center;" vertex="1" parent="0PdoECW7N2lAlVNQ1Ze_-153">
          <mxGeometry x="19.999999999999545" y="170" width="80" height="60" as="geometry" />
        </mxCell>
        <mxCell id="0PdoECW7N2lAlVNQ1Ze_-154" value="associate" style="swimlane;startSize=20;html=1;" parent="0PdoECW7N2lAlVNQ1Ze_-152" vertex="1">
          <mxGeometry x="120" y="20" width="120" height="460" as="geometry" />
        </mxCell>
        <mxCell id="UER0VNb6wHA6vJHIC-ZS-5" style="edgeStyle=orthogonalEdgeStyle;rounded=0;orthogonalLoop=1;jettySize=auto;html=1;" edge="1" parent="0PdoECW7N2lAlVNQ1Ze_-154" source="UER0VNb6wHA6vJHIC-ZS-1" target="UER0VNb6wHA6vJHIC-ZS-2">
          <mxGeometry relative="1" as="geometry" />
        </mxCell>
        <mxCell id="UER0VNb6wHA6vJHIC-ZS-1" value="enter store" style="ellipse;whiteSpace=wrap;html=1;aspect=fixed;" vertex="1" parent="0PdoECW7N2lAlVNQ1Ze_-154">
          <mxGeometry x="38" y="27" width="44" height="44" as="geometry" />
        </mxCell>
        <mxCell id="UER0VNb6wHA6vJHIC-ZS-2" value="provide information" style="rounded=0;whiteSpace=wrap;html=1;fontFamily=Helvetica;fontSize=12;fontColor=#000000;align=center;" vertex="1" parent="0PdoECW7N2lAlVNQ1Ze_-154">
          <mxGeometry x="19.999999999999545" y="90" width="80" height="60" as="geometry" />
        </mxCell>
        <mxCell id="0PdoECW7N2lAlVNQ1Ze_-155" value="staff" style="swimlane;startSize=20;html=1;" parent="0PdoECW7N2lAlVNQ1Ze_-152" vertex="1">
          <mxGeometry x="240" y="20" width="120" height="460" as="geometry" />
        </mxCell>
        <mxCell id="UER0VNb6wHA6vJHIC-ZS-3" value="confirm with customer" style="rounded=0;whiteSpace=wrap;html=1;fontFamily=Helvetica;fontSize=12;fontColor=#000000;align=center;" vertex="1" parent="0PdoECW7N2lAlVNQ1Ze_-155">
          <mxGeometry x="19.999999999999545" y="90" width="80" height="60" as="geometry" />
        </mxCell>
        <mxCell id="0PdoECW7N2lAlVNQ1Ze_-156" value="access control system" style="swimlane;startSize=20;html=1;" parent="0PdoECW7N2lAlVNQ1Ze_-152" vertex="1">
          <mxGeometry x="360" y="20" width="155" height="460" as="geometry" />
        </mxCell>
        <mxCell id="UER0VNb6wHA6vJHIC-ZS-6" style="edgeStyle=orthogonalEdgeStyle;rounded=0;orthogonalLoop=1;jettySize=auto;html=1;" edge="1" parent="0PdoECW7N2lAlVNQ1Ze_-152" source="UER0VNb6wHA6vJHIC-ZS-2" target="UER0VNb6wHA6vJHIC-ZS-3">
          <mxGeometry relative="1" as="geometry" />
        </mxCell>
        <mxCell id="UER0VNb6wHA6vJHIC-ZS-7" style="edgeStyle=orthogonalEdgeStyle;rounded=0;orthogonalLoop=1;jettySize=auto;html=1;" edge="1" parent="0PdoECW7N2lAlVNQ1Ze_-152" source="UER0VNb6wHA6vJHIC-ZS-3" target="UER0VNb6wHA6vJHIC-ZS-4">
          <mxGeometry relative="1" as="geometry">
            <Array as="points">
              <mxPoint x="300" y="221" />
            </Array>
          </mxGeometry>
        </mxCell>
      </root>
    </mxGraphModel>
  </diagram>
</mxfile>
